<?xml version="1.0" encoding="UTF-8" standalone="no"?><!DOCTYPE svg PUBLIC "-//W3C//DTD SVG 1.1//EN" "http://www.w3.org/Graphics/SVG/1.1/DTD/svg11.dtd"><svg width="100%" height="100%" viewBox="0 0 330 299" version="1.1" xmlns="http://www.w3.org/2000/svg" xmlns:xlink="http://www.w3.org/1999/xlink" xml:space="preserve" xmlns:serif="http://www.serif.com/" style="fill-rule:evenodd;clip-rule:evenodd;stroke-linejoin:round;stroke-miterlimit:2;"><g id="Layer-1" serif:id="Layer 1"><path d="M161.631,26.274c54.84,0 99.296,44.456 99.296,99.296c-0,54.839 -44.456,99.296 -99.296,99.296c-54.84,0 -99.296,-44.457 -99.296,-99.296c-0,-54.84 44.456,-99.296 99.296,-99.296" style="fill:#fec171;fill-rule:nonzero;"/><path d="M14.199,173.767c0.726,3.205 1.572,6.35 2.54,9.434c6.229,20.077 16.509,38.339 29.934,53.881c53.76,45.415 155.777,39.549 207.481,21.407c14.634,-11.248 27.152,-25.096 36.828,-40.819c-48.015,-13.667 -253.924,-49.648 -276.783,-43.903" style="fill:#31302c;fill-rule:nonzero;"/><path d="M69.531,196.867c70.571,32.595 154.87,43.298 218.487,25.398c7.983,-11.913 14.272,-25.035 18.626,-39.065c0.423,-1.33 0.786,-2.6 1.149,-3.93c1.632,-5.987 -3.75,-11.49 -9.736,-9.918c-6.713,1.754 -14.211,3.81 -17.658,4.838c-55.756,16.327 -73.414,-4.536 -125.118,-2.238c-46.261,4.052 -79.763,-28.603 -99.78,-55.09c-5.926,-7.317 -11.792,-16.811 -17.537,-25.096c-6.833,-9.918 -22.314,-5.927 -23.644,6.047l-2.722,24.612c-1.935,17.416 -1.27,35.074 2.722,52.067c17.537,4.838 35.134,12.881 55.211,22.375" style="fill:#2d7c87;fill-rule:nonzero;"/><path d="M139.195,259.275c-33.139,7.317 -65.855,-7.438 -95.244,-25.338c27.817,34.167 70.208,55.998 117.74,55.998c37.432,-0 71.66,-13.546 98.147,-35.982c-41.484,5.685 -58.901,-8.284 -120.643,5.322" style="fill:#fe7d43;fill-rule:nonzero;"/><path d="M164.291,106.219c1.27,1.572 2.298,3.266 2.903,4.959c0.121,0.484 -0.484,0.786 -0.786,0.363c-2.661,-3.689 -6.834,-6.471 -12.942,-12.518c-2.6,-2.54 -5.563,-4.596 -8.829,-6.108c-30.357,-14.151 -44.931,-21.286 -54.969,-31.809c-15.179,-15.783 -19.291,-31.748 -23.342,-39.307c-0.787,-1.451 -2.964,-1.27 -3.508,0.242c-3.87,10.16 -2.116,26.064 20.742,44.206c0.605,0.483 0,1.451 -0.725,1.088c-13.304,-7.196 -19.956,-12.578 -29.813,-21.105c-7.801,-6.712 -16.268,-13.606 -20.863,-17.295c-1.27,-1.028 -3.024,0.242 -2.54,1.814c4.233,12.941 21.467,27.273 39.246,36.102c0.726,0.363 0.303,1.452 -0.423,1.21c-16.751,-4.838 -39.428,-11.127 -49.769,-14.09c-1.572,-0.424 -2.661,1.632 -1.451,2.661c11.611,9.736 32.897,14.392 49.648,16.569c0.786,0.06 0.725,1.209 0,1.27c-5.987,0.423 -13.183,0.302 -16.993,-0c-1.149,-0.061 -1.935,1.149 -1.391,2.177c3.024,5.442 12.82,18.988 39.065,26.426c10.764,3.024 19.473,3.387 27.636,5.745c0.786,0.242 0.605,1.452 -0.302,1.27c-9.918,-1.088 -21.105,-0.725 -33.865,-3.87c-1.632,-0.423 -3.326,0.907 -3.084,2.661c3.508,28.482 39.428,38.218 57.872,42.693c1.573,0.363 3.266,-0.423 3.871,-1.935l5.926,-13.667c27.273,14.756 43.601,6.169 43.601,6.169l1.028,0.242c1.391,0.302 2.781,0.121 4.112,-0.363c1.149,-0.424 2.6,-1.028 4.112,-1.573c1.814,0.121 3.145,1.391 4.052,2.661c0.302,0.424 1.028,0.424 1.209,-0.06c1.451,-2.419 0.907,-4.657 0.363,-6.773c0,-0 0.665,-2.661 0.484,-4.294c-0.121,-1.633 -0.847,-2.298 -2.298,-5.624c-1.27,-3.023 -4.415,-2.963 -5.443,-0.665c-0.242,0.423 -0.665,0.605 -1.088,0.484c-0.303,-0.061 -0.726,-0.121 -1.089,-0.302c-2.116,-0.484 -4.293,0.12 -5.684,1.753c-2.177,2.54 -3.266,6.531 -2.419,9.736c0.242,0.907 -0.726,1.814 -1.572,1.27c-3.024,-1.572 -4.657,-3.568 -5.564,-5.987c-1.149,-2.963 2.903,-11.973 8.95,-12.638c2.721,-0.363 4.838,0.846 6.108,1.995c0.484,0.424 1.27,0.484 1.814,0.121c0.06,-0.06 0.242,-0.121 0.363,-0.242c1.27,-0.786 2.721,-0.907 4.172,-0.604c1.815,0.483 3.266,1.874 4.113,3.809c0.483,1.149 0.907,1.996 1.209,2.661c0.665,1.21 1.149,2.238 1.27,3.749c0.06,1.089 -0.061,2.419 -0.242,3.447c-0.06,0.666 -0.06,1.27 0.06,1.875c0.121,0.726 0.787,1.21 1.512,1.21c10.16,-0.303 28.483,0.362 36.465,3.93c0,-0 9.797,9.615 18.444,14.272c1.512,0.786 3.387,-0.363 3.326,-2.117c-0.423,-5.079 -2.721,-11.429 -7.075,-16.751c-0.484,-0.604 0.242,-1.451 0.847,-1.088c9.373,5.019 24.672,10.22 35.255,9.615c0.786,-0.061 1.21,-0.847 0.847,-1.572c-1.754,-3.084 -4.778,-6.531 -8.95,-9.434c-0.665,-0.423 -0.424,-1.512 0.423,-1.572c8.587,-0.786 19.654,-4.052 27.394,-12.095c4.838,-5.019 7.68,-10.764 8.769,-16.63c0.363,-1.995 -2.419,-2.902 -3.326,-1.088c-4.052,8.224 -12.76,17.9 -29.511,20.984c-25.036,4.535 -49.89,-8.466 -89.015,-12.639c-1.573,-0.121 -3.266,-0.242 -4.838,-0.061l-0.786,0.061c-0.786,0.06 -1.149,1.028 -0.666,1.633c0.787,0.846 1.754,1.632 2.601,2.419c0.363,0.302 -0.061,0.846 -0.484,0.665c-6.592,-4.294 -14.392,-10.16 -21.71,-12.095c-3.386,-0.846 -7.438,-1.028 -11.248,-1.028c-1.33,0.545 -1.935,1.814 -1.209,2.782" style="fill:#31302c;fill-rule:nonzero;"/></g></svg>