<svg width="183" height="78" viewBox="0 0 183 78" fill="none" xmlns="http://www.w3.org/2000/svg">
<path d="M109.108 4.18571H74.4177C70.586 4.18571 67.4797 7.29197 67.4797 11.1237V66.628C67.4797 70.4598 70.586 73.5661 74.4177 73.5661H109.108C112.94 73.5661 116.046 70.4598 116.046 66.628V11.1237C116.046 7.29197 112.94 4.18571 109.108 4.18571Z" stroke="#2C7C89" stroke-width="8" stroke-linecap="round" stroke-linejoin="round"/>
<path d="M91.7628 59.69H91.7987" stroke="#2C7C89" stroke-width="8" stroke-linecap="round" stroke-linejoin="round"/>
<path d="M49.3017 31.7619C38.1917 29.8918 26.7888 32.389 17.4774 38.7314L5.78716 46.987" stroke="#FF7D43" stroke-width="8" stroke-linecap="round" stroke-linejoin="round"/>
<path d="M27.8511 50.7863L5.78719 46.9869L9.58656 24.923" stroke="#FF7D43" stroke-width="8" stroke-linecap="round" stroke-linejoin="round"/>
<path d="M134.224 31.7619C145.334 29.8918 156.737 32.389 166.048 38.7314L177.738 46.987" stroke="#FF7D43" stroke-width="8" stroke-linecap="round" stroke-linejoin="round"/>
<path d="M155.675 50.7863L177.738 46.9869L173.939 24.923" stroke="#FF7D43" stroke-width="8" stroke-linecap="round" stroke-linejoin="round"/>
</svg>
