<svg width="181" height="78" viewBox="0 0 181 78" fill="none" xmlns="http://www.w3.org/2000/svg">
<path d="M107.476 4H72.7862C68.9544 4 65.8481 7.10626 65.8481 10.938V66.4423C65.8481 70.2741 68.9544 73.3804 72.7862 73.3804H107.476C111.308 73.3804 114.414 70.2741 114.414 66.4423V10.938C114.414 7.10626 111.308 4 107.476 4Z" stroke="#2C7C89" stroke-width="8" stroke-linecap="round" stroke-linejoin="round"/>
<path d="M81.3715 36.022C81.3715 34.1104 82.1615 32.2771 83.5678 30.9254C84.974 29.5737 86.8813 28.8143 88.87 28.8143C90.8587 28.8143 92.7659 29.5737 94.1722 30.9254C95.5784 32.2771 96.3684 34.1104 96.3684 36.022C96.3684 36.2769 96.2631 36.5213 96.0756 36.7016C95.8881 36.8818 95.6338 36.983 95.3686 36.983C95.1035 36.983 94.8491 36.8818 94.6617 36.7016C94.4742 36.5213 94.3688 36.2769 94.3688 36.022C94.3688 34.6202 93.7895 33.2757 92.7582 32.2845C91.727 31.2932 90.3284 30.7363 88.87 30.7363C87.4116 30.7363 86.0129 31.2932 84.9817 32.2845C83.9504 33.2757 83.3711 34.6202 83.3711 36.022C83.3711 36.2769 83.2658 36.5213 83.0783 36.7016C82.8908 36.8818 82.6365 36.983 82.3713 36.983C82.1062 36.983 81.8518 36.8818 81.6644 36.7016C81.4769 36.5213 81.3715 36.2769 81.3715 36.022ZM98.8679 41.3077C98.2847 41.3071 97.7106 41.4471 97.1982 41.7149C97.0451 41.2595 96.7927 40.8407 96.4578 40.4866C96.1228 40.1325 95.7131 39.8511 95.2561 39.6613C94.799 39.4716 94.305 39.3777 93.8072 39.3861C93.3094 39.3945 92.8191 39.5049 92.3692 39.71V36.022C92.3692 35.1299 92.0006 34.2744 91.3443 33.6436C90.6881 33.0128 89.798 32.6584 88.87 32.6584C87.9419 32.6584 87.0518 33.0128 86.3956 33.6436C85.7394 34.2744 85.3707 35.1299 85.3707 36.022V45.6323L84.8933 44.8959C84.4264 44.1248 83.66 43.5634 82.7626 43.3354C81.8652 43.1075 80.9103 43.2315 80.108 43.6802C79.3058 44.129 78.7218 44.8657 78.4846 45.7283C78.2474 46.5909 78.3764 47.5088 78.8433 48.28L82.5075 54.2864C82.569 54.4034 82.6547 54.5071 82.7594 54.591C82.864 54.675 82.9855 54.7375 83.1162 54.7747C83.2469 54.8119 83.3842 54.823 83.5195 54.8074C83.6549 54.7917 83.7855 54.7496 83.9033 54.6836C84.0211 54.6176 84.1236 54.5292 84.2046 54.4237C84.2855 54.3183 84.3431 54.198 84.3739 54.0704C84.4047 53.9427 84.4081 53.8103 84.3837 53.6814C84.3593 53.5525 84.3077 53.4297 84.2322 53.3206L80.5717 47.3141C80.4689 47.1501 80.4012 46.9679 80.3725 46.7784C80.3437 46.5889 80.3546 46.3958 80.4044 46.2103C80.4542 46.0249 80.5419 45.8509 80.6625 45.6984C80.783 45.5459 80.934 45.418 81.1065 45.3222C81.2791 45.2265 81.4697 45.1647 81.6674 45.1406C81.865 45.1164 82.0657 45.1304 82.2577 45.1816C82.4497 45.2328 82.6291 45.3203 82.7855 45.439C82.9419 45.5576 83.0722 45.705 83.1686 45.8726L83.1861 45.9002L85.5207 49.5041C85.6353 49.6819 85.8071 49.8188 86.0101 49.8942C86.213 49.9696 86.436 49.9793 86.6452 49.9219C86.8544 49.8644 87.0384 49.7429 87.1693 49.5758C87.3001 49.4087 87.3707 49.2051 87.3703 48.9959V36.022C87.3703 35.6397 87.5283 35.273 87.8095 35.0027C88.0908 34.7323 88.4722 34.5805 88.87 34.5805C89.2677 34.5805 89.6492 34.7323 89.9304 35.0027C90.2116 35.273 90.3697 35.6397 90.3697 36.022V44.1908C90.3697 44.4457 90.475 44.6901 90.6625 44.8703C90.85 45.0506 91.1043 45.1518 91.3694 45.1518C91.6346 45.1518 91.8889 45.0506 92.0764 44.8703C92.2639 44.6901 92.3692 44.4457 92.3692 44.1908V42.7492C92.3692 42.3669 92.5272 42.0002 92.8085 41.7299C93.0897 41.4596 93.4712 41.3077 93.8689 41.3077C94.2667 41.3077 94.6481 41.4596 94.9294 41.7299C95.2106 42.0002 95.3686 42.3669 95.3686 42.7492V45.1518C95.3686 45.4067 95.4739 45.6511 95.6614 45.8314C95.8489 46.0116 96.1032 46.1128 96.3684 46.1128C96.6336 46.1128 96.8879 46.0116 97.0754 45.8314C97.2629 45.6511 97.3682 45.4067 97.3682 45.1518V44.6713C97.3682 44.289 97.5262 43.9223 97.8074 43.652C98.0887 43.3816 98.4701 43.2297 98.8679 43.2297C99.2656 43.2297 99.6471 43.3816 99.9283 43.652C100.21 43.9223 100.368 44.289 100.368 44.6713V48.9959C100.368 51.5919 99.4803 53.3566 99.4728 53.371C99.3543 53.599 99.3349 53.8629 99.4188 54.1046C99.5027 54.3463 99.6831 54.5461 99.9202 54.66C100.059 54.7274 100.212 54.7624 100.368 54.7621C100.553 54.7623 100.735 54.7127 100.893 54.6189C101.052 54.5251 101.179 54.3908 101.262 54.2312C101.309 54.1435 102.368 52.0688 102.368 48.9959V44.6713C102.368 44.2295 102.278 43.792 102.102 43.3838C101.926 42.9756 101.668 42.6048 101.343 42.2924C101.018 41.9801 100.632 41.7323 100.207 41.5634C99.7827 41.3944 99.3275 41.3075 98.8679 41.3077Z" fill="#31302C"/>
<path d="M18.5898 56.3379L4.00647 41.7546L18.5898 27.1713" stroke="#FF7D43" stroke-width="8" stroke-linecap="round" stroke-linejoin="round"/>
<path d="M48.3684 41.8143L4 42.0623" stroke="#FF7D43" stroke-width="8" stroke-linecap="round" stroke-linejoin="round"/>
<path d="M162.147 56.3379L176.73 41.7546L162.147 27.1713" stroke="#FF7D43" stroke-width="8" stroke-linecap="round" stroke-linejoin="round"/>
<path d="M132.368 41.8143L176.737 42.0623" stroke="#FF7D43" stroke-width="8" stroke-linecap="round" stroke-linejoin="round"/>
</svg>
